<?xml version="1.0" encoding="UTF-8"?>
<svg width="1024" height="1024" viewBox="0 0 1024 1024" fill="none" xmlns="http://www.w3.org/2000/svg">
    <!-- 背景圆形 -->
    <circle cx="512" cy="512" r="512" fill="#1A1A1A"/>
    
    <!-- 渐变红色边框 -->
    <circle cx="512" cy="512" r="480" 
            stroke="url(#borderGradient)" 
            stroke-width="32"
            fill="url(#gradient)"/>
    
    <!-- WM 文字 (性感设计) -->
    <g transform="translate(200, 320) scale(1.2)">
        <!-- W (完全倒置的M, 1.3倍大) -->
        <g transform="translate(0, 40) scale(1.3)">
            <path d="M0 0
                    C 20 140, 30 160, 40 120
                    S 60 20, 80 0
                    C 100 140, 110 160, 120 120
                    S 140 20, 160 0" 
                  stroke="url(#wGradient)" 
                  stroke-width="24"
                  stroke-linecap="round"
                  fill="none">
                <animate attributeName="stroke-width"
                         values="24;32;24"
                         dur="2s"
                         repeatCount="indefinite"/>
                <animate attributeName="opacity"
                         values="0.95;1;0.95"
                         dur="2s"
                         repeatCount="indefinite"/>
            </path>
        </g>
        
        <!-- M -->
        <path d="M220 180
                C 240 40, 250 20, 260 60
                S 280 160, 300 180
                C 320 40, 330 20, 340 60
                S 360 160, 380 180" 
              stroke="url(#textGradient)" 
              stroke-width="28"
              stroke-linecap="round"
              fill="none">
            <animate attributeName="stroke-width"
                     values="28;32;28"
                     dur="3s"
                     repeatCount="indefinite"/>
        </path>
    </g>

    <!-- 装饰线条 -->
    <circle cx="512" cy="512" r="400" 
            stroke="url(#borderGradient)" 
            stroke-width="2" 
            stroke-dasharray="2,8"
            opacity="0.5"/>

    <!-- 左红心 -->
    <g transform="translate(312, 612) scale(0.35)">
        <path d="M250 150
                C 250 150 200 50 150 50
                C 80 50 50 120 50 180
                C 50 300 250 420 250 420
                C 250 420 450 300 450 180
                C 450 120 420 50 350 50
                C 300 50 250 150 250 150Z"
              fill="url(#heartGradient)">
            <animate attributeName="opacity" 
                     values="1;0.7;1" 
                     dur="2s"
                     repeatCount="indefinite"/>
        </path>
    </g>

    <!-- 右红心 -->
    <g transform="translate(512, 612) scale(0.35)">
        <path d="M250 150
                C 250 150 200 50 150 50
                C 80 50 50 120 50 180
                C 50 300 250 420 250 420
                C 250 420 450 300 450 180
                C 450 120 420 50 350 50
                C 300 50 250 150 250 150Z"
              fill="url(#heartGradient)">
            <animate attributeName="opacity" 
                     values="1;0.7;1" 
                     dur="2.5s"
                     repeatCount="indefinite"/>
        </path>
    </g>
            
    <!-- 渐变定义 -->
    <defs>
        <linearGradient id="gradient" x1="0" y1="0" x2="1024" y2="1024" gradientUnits="userSpaceOnUse">
            <stop offset="0%" style="stop-color:#2A2A2A"/>
            <stop offset="100%" style="stop-color:#1A1A1A"/>
        </linearGradient>

        <linearGradient id="borderGradient" x1="0" y1="0" x2="1024" y2="1024" gradientUnits="userSpaceOnUse">
            <stop offset="0%" style="stop-color:#FF3366"/>
            <stop offset="50%" style="stop-color:#FF1744"/>
            <stop offset="100%" style="stop-color:#FF0033"/>
        </linearGradient>

        <linearGradient id="wGradient" x1="0" y1="0" x2="160" y2="160" gradientUnits="userSpaceOnUse">
            <stop offset="0%" style="stop-color:#FF3366"/>
            <stop offset="50%" style="stop-color:#FFFFFF"/>
            <stop offset="100%" style="stop-color:#FF3366"/>
        </linearGradient>

        <linearGradient id="textGradient" x1="0" y1="40" x2="380" y2="180" gradientUnits="userSpaceOnUse">
            <stop offset="0%" style="stop-color:#FFFFFF"/>
            <stop offset="50%" style="stop-color:#FAFAFA"/>
            <stop offset="100%" style="stop-color:#F5F5F5"/>
        </linearGradient>

        <linearGradient id="heartGradient" x1="50" y1="50" x2="450" y2="420" gradientUnits="userSpaceOnUse">
            <stop offset="0%" style="stop-color:#FF3366"/>
            <stop offset="50%" style="stop-color:#FF1744"/>
            <stop offset="100%" style="stop-color:#FF0033"/>
        </linearGradient>
    </defs>
</svg> 