<?xml version="1.0" encoding="UTF-8"?>
<svg width="108" height="108" viewBox="0 0 108 108" fill="none" xmlns="http://www.w3.org/2000/svg">
    <!-- 渐变背景 -->
    <rect x="14" y="14" width="80" height="80" 
          fill="url(#bgGradient)"/>
    
    <!-- WM 文字 (性感设计) -->
    <g transform="translate(15, 30) scale(0.195)">
        <!-- W (完全倒置的M, 1.69倍大) -->
        <g transform="translate(0, 40) scale(1.69)">
            <path d="M0 0
                    C 20 140, 30 160, 40 120
                    S 60 20, 80 0
                    C 100 140, 110 160, 120 120
                    S 140 20, 160 0" 
                  stroke="#FFFFFF" 
                  stroke-width="24"
                  stroke-linecap="round"
                  fill="none">
                <animate attributeName="stroke-width"
                         values="24;32;24"
                         dur="2s"
                         repeatCount="indefinite"/>
                <animate attributeName="opacity"
                         values="0.95;1;0.95"
                         dur="2s"
                         repeatCount="indefinite"/>
            </path>
        </g>
        
        <!-- M -->
        <path d="M220 180
                C 240 40, 250 20, 260 60
                S 280 160, 300 180
                C 320 40, 330 20, 340 60
                S 360 160, 380 180" 
              stroke="url(#textGradient)" 
              stroke-width="28"
              stroke-linecap="round"
              fill="none">
            <animate attributeName="stroke-width"
                     values="28;32;28"
                     dur="3s"
                     repeatCount="indefinite"/>
        </path>
    </g>

    <!-- 装饰线条 -->
    <rect x="14" y="14" width="80" height="80" 
          stroke="rgba(255,255,255,0.1)" 
          stroke-width="0.2" 
          stroke-dasharray="0.2,0.8"
          fill="none"
          opacity="0.5"/>

    <!-- 左红心 -->
    <g transform="translate(30, 72) scale(0.04)">
        <path d="M250 150
                C 250 150 200 50 150 50
                C 80 50 50 120 50 180
                C 50 300 250 420 250 420
                C 250 420 450 300 450 180
                C 450 120 420 50 350 50
                C 300 50 250 150 250 150Z"
              fill="url(#heartGradient)">
            <animate attributeName="opacity" 
                     values="1;0.8;1" 
                     dur="2s"
                     repeatCount="indefinite"/>
        </path>
    </g>

    <!-- 右红心 -->
    <g transform="translate(60, 72) scale(0.04)">
        <path d="M250 150
                C 250 150 200 50 150 50
                C 80 50 50 120 50 180
                C 50 300 250 420 250 420
                C 250 420 450 300 450 180
                C 450 120 420 50 350 50
                C 300 50 250 150 250 150Z"
              fill="url(#heartGradient)">
            <animate attributeName="opacity" 
                     values="1;0.8;1" 
                     dur="2.5s"
                     repeatCount="indefinite"/>
        </path>
    </g>
            
    <!-- 渐变定义 -->
    <defs>
        <radialGradient id="bgGradient" cx="54" cy="54" r="40" gradientUnits="userSpaceOnUse">
            <stop offset="0%" style="stop-color:#FF3366;stop-opacity:0.2"/>
            <stop offset="70%" style="stop-color:#FF1744;stop-opacity:0.1"/>
            <stop offset="100%" style="stop-color:#FF0033;stop-opacity:0"/>
        </radialGradient>

        <linearGradient id="wGradient" x1="0" y1="0" x2="160" y2="160" gradientUnits="userSpaceOnUse">
            <stop offset="0%" style="stop-color:#FF3366"/>
            <stop offset="50%" style="stop-color:#FFFFFF"/>
            <stop offset="100%" style="stop-color:#FF3366"/>
        </linearGradient>

        <linearGradient id="textGradient" x1="0" y1="40" x2="380" y2="180" gradientUnits="userSpaceOnUse">
            <stop offset="0%" style="stop-color:#FFFFFF"/>
            <stop offset="50%" style="stop-color:#FAFAFA"/>
            <stop offset="100%" style="stop-color:#F5F5F5"/>
        </linearGradient>

        <linearGradient id="heartGradient" x1="50" y1="50" x2="450" y2="420" gradientUnits="userSpaceOnUse">
            <stop offset="0%" style="stop-color:#FE3C72"/>
            <stop offset="50%" style="stop-color:#FF655B"/>
            <stop offset="100%" style="stop-color:#FF7854"/>
        </linearGradient>
    </defs>
</svg> 